<svg xmlns="http://www.w3.org/2000/svg" fill="#000000" viewBox="4 2 42 46" xmlns:v="https://vecta.io/nano"><path fill="#FFF" d="M43.91 12.004L27.07 2.539c-1.277-.715-2.863-.715-4.141 0L6.09 12.004C4.801 12.727 4 14.082 4 15.535v18.93c0 1.453.801 2.809 2.09 3.531l16.84 9.465a4.23 4.23 0 0 0 4.141 0l16.84-9.465c1.289-.723 2.09-2.078 2.09-3.531v-18.93c0-1.453-.801-2.809-2.09-3.531zM25 37c-6.617 0-12-5.383-12-12s5.383-12 12-12a11.93 11.93 0 0 1 9.543 4.742l-4.383 2.535C28.844 18.836 26.973 18 25 18a7.01 7.01 0 0 0-7 7 7.01 7.01 0 0 0 7 7c1.973 0 3.844-.836 5.16-2.277l4.383 2.535A11.93 11.93 0 0 1 25 37zm12-11h-2v2h-2v-2h-2v-2h2v-2h2v2h2zm7 0h-2v2h-2v-2h-2v-2h2v-2h2v2h2z"/></svg>