<svg xmlns="http://www.w3.org/2000/svg" viewBox="0 63.15 455.86 329.55" xmlns:v="https://vecta.io/nano"><path fill="#FFF" d="M52.616 139.032l102.427 88.898-102.427 88.898a14.78 14.78 0 0 0-1.474 20.843 14.78 14.78 0 0 0 20.842 1.474l105.6-91.651 40.663 35.292a14.74 14.74 0 0 0 19.368 0l40.663-35.292 105.6 91.651a14.78 14.78 0 0 0 20.842-1.474 14.78 14.78 0 0 0-1.474-20.843L300.819 227.93l102.427-88.898c6.163-5.349 6.823-14.68 1.474-20.843s-14.682-6.822-20.842-1.474L227.931 252.063 71.984 116.715a14.78 14.78 0 0 0-20.842 1.474 14.78 14.78 0 0 0 1.474 20.843zm388.472-75.878H14.774A14.78 14.78 0 0 0 0 77.929v300.003c0 8.16 6.615 14.774 14.774 14.774h426.313c8.16 0 14.774-6.614 14.774-14.774V77.929c.001-8.159-6.613-14.775-14.773-14.775zm-14.774 300.003h-.001H29.549V92.703h396.765v270.454z"/></svg>