<?xml version="1.0" standalone="no"?>
<!DOCTYPE svg PUBLIC "-//W3C//DTD SVG 20010904//EN"
 "http://www.w3.org/TR/2001/REC-SVG-20010904/DTD/svg10.dtd">
<svg version="1.0" xmlns="http://www.w3.org/2000/svg"
 width="473.000000pt" height="473.000000pt" viewBox="0 0 473.000000 473.000000"
 preserveAspectRatio="xMidYMid meet">

<g transform="translate(0.000000,473.000000) scale(0.100000,-0.100000)"
fill="#FFF" stroke="none">
<path d="M2235 4709 c-236 -12 -403 -51 -570 -133 -211 -104 -338 -242 -400
-436 -15 -46 -19 -104 -23 -352 l-4 -298 514 -2 513 -3 0 -50 0 -50 -830 -5
-830 -5 -65 -23 c-105 -38 -170 -80 -255 -166 -92 -93 -134 -160 -183 -289
-68 -180 -94 -400 -80 -664 11 -214 65 -417 149 -560 54 -93 190 -222 279
-265 130 -64 163 -68 493 -68 l295 0 4 -352 c4 -304 7 -361 22 -408 63 -194
190 -332 401 -435 195 -97 400 -136 705 -136 113 0 228 6 295 16 368 51 640
207 758 433 67 128 70 146 75 474 l4 298 -514 2 -513 3 0 50 0 50 830 5 830 5
65 23 c105 38 170 80 255 166 92 93 134 160 183 289 68 180 94 400 80 665 -11
213 -65 416 -149 559 -48 81 -180 212 -259 256 -126 69 -176 77 -512 77 l-296
0 -4 353 -3 352 -28 78 c-75 214 -253 377 -508 464 -131 45 -279 73 -419 79
-63 3 -128 6 -145 7 -16 2 -88 0 -160 -4z m459 -224 c280 -51 477 -169 558
-333 l33 -67 3 -679 c2 -586 0 -686 -13 -732 -20 -69 -95 -153 -167 -185 l-53
-24 -705 -5 c-697 -5 -706 -5 -763 -27 -130 -49 -232 -143 -291 -266 -47 -97
-56 -164 -56 -414 l0 -213 -273 0 c-289 0 -341 6 -429 51 -133 68 -242 244
-291 469 -30 138 -30 462 0 600 49 225 158 401 291 469 101 51 91 51 1044 51
l888 0 0 255 0 255 -511 0 -511 0 4 193 c3 192 3 192 34 258 83 176 273 291
564 343 124 22 156 24 365 21 117 -3 224 -10 279 -20z m1409 -1320 c79 -21
131 -49 188 -102 94 -87 164 -228 202 -403 30 -138 30 -462 0 -600 -49 -225
-158 -401 -291 -469 -101 -51 -91 -51 -1044 -51 l-888 0 0 -255 0 -255 511 0
511 0 -4 -193 c-3 -192 -3 -192 -34 -258 -84 -177 -271 -290 -574 -346 -134
-24 -486 -24 -620 0 -128 24 -221 52 -304 93 -137 68 -218 144 -270 253 l-31
66 -3 675 c-2 611 -1 679 14 728 23 71 95 151 166 183 l53 24 710 5 c699 5
711 5 763 27 175 71 304 229 332 403 5 36 10 161 10 278 l0 212 273 0 c210 0
286 -3 330 -15z"/>
<path d="M1780 4189 c-33 -13 -88 -66 -107 -104 -9 -16 -16 -55 -17 -85 0
-100 64 -179 165 -201 85 -19 179 30 223 118 33 66 11 178 -45 230 -52 48
-155 67 -219 42z"/>
<path d="M2821 915 c-82 -26 -141 -107 -141 -192 1 -117 87 -203 204 -203 58
0 93 14 134 53 48 46 65 84 66 147 2 136 -133 236 -263 195z"/>
</g>
</svg>
