<svg xmlns="http://www.w3.org/2000/svg" width="630.667" height="630.667" viewBox="0 0 473 473" preserveAspectRatio="xMidYMid meet" xmlns:v="https://vecta.io/nano"><path fill="#FFF" d="M223.5 2.1c-23.6 1.2-40.3 5.1-57 13.3-21.1 10.4-33.8 24.2-40 43.6-1.5 4.6-1.9 10.4-2.3 35.2l-.4 29.8 51.4.2 51.3.3v5 5l-83 .5-83 .5-6.5 2.3c-10.5 3.8-17 8-25.5 16.6-9.2 9.3-13.4 16-18.3 28.9-6.8 18-9.4 40-8 66.4 1.1 21.4 6.5 41.7 14.9 56 5.4 9.3 19 22.2 27.9 26.5 13 6.4 16.3 6.8 49.3 6.8h29.5l.4 35.2c.4 30.4.7 36.1 2.2 40.8 6.3 19.4 19 33.2 40.1 43.5 19.5 9.7 40 13.6 70.5 13.6 11.3 0 22.8-.6 29.5-1.6 36.8-5.1 64-20.7 75.8-43.3 6.7-12.8 7-14.6 7.5-47.4l.4-29.8-51.4-.2-51.3-.3v-5-5l83-.5 83-.5 6.5-2.3c10.5-3.8 17-8 25.5-16.6 9.2-9.3 13.4-16 18.3-28.9 6.8-18 9.4-40 8-66.5-1.1-21.3-6.5-41.6-14.9-55.9-4.8-8.1-18-21.2-25.9-25.6-12.6-6.9-17.6-7.7-51.2-7.7h-29.6l-.4-35.3-.3-35.2-2.8-7.8c-7.5-21.4-25.3-37.7-50.8-46.4C282.8 5.8 268 3 254 2.4l-14.5-.7c-1.6-.2-8.8 0-16 .4zm45.9 22.4c28 5.1 47.7 16.9 55.8 33.3l3.3 6.7.3 67.9c.2 58.6 0 68.6-1.3 73.2-2 6.9-9.5 15.3-16.7 18.5l-5.3 2.4-70.5.5c-69.7.5-70.6.5-76.3 2.7-13 4.9-23.2 14.3-29.1 26.6-4.7 9.7-5.6 16.4-5.6 41.4V319H96.7c-28.9 0-34.1-.6-42.9-5.1-13.3-6.8-24.2-24.4-29.1-46.9-3-13.8-3-46.2 0-60 4.9-22.5 15.8-40.1 29.1-46.9 10.1-5.1 9.1-5.1 104.4-5.1H247v-25.5V104h-51.1-51.1l.4-19.3c.3-19.2.3-19.2 3.4-25.8 8.3-17.6 27.3-29.1 56.4-34.3 12.4-2.2 15.6-2.4 36.5-2.1 11.7.3 22.4 1 27.9 2zm140.9 132c7.9 2.1 13.1 4.9 18.8 10.2 9.4 8.7 16.4 22.8 20.2 40.3 3 13.8 3 46.2 0 60-4.9 22.5-15.8 40.1-29.1 46.9-10.1 5.1-9.1 5.1-104.4 5.1H227v25.5V370h51.1 51.1l-.4 19.3c-.3 19.2-.3 19.2-3.4 25.8-8.4 17.7-27.1 29-57.4 34.6-13.4 2.4-48.6 2.4-62 0-12.8-2.4-22.1-5.2-30.4-9.3-13.7-6.8-21.8-14.4-27-25.3l-3.1-6.6-.3-67.5c-.2-61.1-.1-67.9 1.4-72.8 2.3-7.1 9.5-15.1 16.6-18.3l5.3-2.4 71-.5c69.9-.5 71.1-.5 76.3-2.7 17.5-7.1 30.4-22.9 33.2-40.3.5-3.6 1-16.1 1-27.8V155h27.3c21 0 28.6.3 33 1.5zM178 54.1c-3.3 1.3-8.8 6.6-10.7 10.4-.9 1.6-1.6 5.5-1.7 8.5 0 10 6.4 17.9 16.5 20.1 8.5 1.9 17.9-3 22.3-11.8 3.3-6.6 1.1-17.8-4.5-23-5.2-4.8-15.5-6.7-21.9-4.2zm104.1 327.4c-8.2 2.6-14.1 10.7-14.1 19.2.1 11.7 8.7 20.3 20.4 20.3 5.8 0 9.3-1.4 13.4-5.3 4.8-4.6 6.5-8.4 6.6-14.7.2-13.6-13.3-23.6-26.3-19.5z"/></svg>