<svg xmlns="http://www.w3.org/2000/svg" viewBox="1.76 3.09 28.07 26.91" xmlns:v="https://vecta.io/nano"><path fill="#fff" d="M9.456 27.25L28 29.782l-6.27-10.441L9.457 27.25zM29.755 7.705l-1.644 2.468-5.635 8.482c-.105.158-.24.283-.093.525l5.417 9 .941 1.401 1.094-21.852-.08-.023zm-24.76 9.338c.085.081.296.127.395.079l5.192-2.617c.555-.302.982-.842 1.46-1.281l4.744-4.362c.097-.089.211-.176.269-.288l1.703-3.371-2.002-.742c-.089-.031-.231.031-.328.085l-4.569 2.595c-.741.466-1.345 1.154-2.001 1.752a263.561 263.561 0 0 0-3.156 2.915 5.385 5.385 0 0 0-.744.872l-2.127 3.173 1.165 1.191zm6.358-1.418L8.738 26.672l12.286-7.916-9.671-3.13zM28.692 7.74L18.25 9.484l3.544 8.62L28.693 7.74zm-17.194 7.137l9.479 3.077a46701.83 46701.83 0 0 0-3.506-8.538l-5.973 5.461zm-6.372 4.298l-3.317 7.93 6.318-.187-3.001-7.744zm3.075 5.905l.079-.017 2.303-9.565-5.069 2.635 2.688 6.947zM27.417 7.229l-3.027-.801-4.353-1.143c-.181-.048-.312-.08-.419.139l-1.561 3.138c-.016.032-.013.074-.025.155l9.383-1.422.002-.066zm-5.853-2.388l8.223 2.275-1.359-3.872-6.852 1.519-.012.077zM8.899 27.856c-1.019-.117-2.064-.009-3.097.008l-2.545.073a.338.338 0 0 0-.262.114l21.044 1.946.014-.094-6.746-.921-8.408-1.127zm-6.952-3.171l2.712-6.292c.091-.21.084-.353-.094-.522l-1.147-1.182-1.655 8.171.061.029c.042-.067.093-.131.124-.203zM19.763 4.287l4.608-1.044c.099-.022.197-.055.295-.083l-.015-.075-6.606.889c.62.271 1.098.473 1.718.314z"/></svg>