<svg xmlns="http://www.w3.org/2000/svg" viewBox="0 0 512.001 512.001" xmlns:v="https://vecta.io/nano"><path d="M509.532 34.999c-2.292-2.233-5.678-2.924-8.658-1.764L5.213 225.734a8.17 8.17 0 0 0-5.192 7.034 8.17 8.17 0 0 0 4.138 7.7l102.719 57.875 35.651 174.259a8.16 8.16 0 0 0 1.442 3.364l.191.251c1.256 1.571 3.037 2.668 5.113 3l.795.088.511.016a8.12 8.12 0 0 0 4.295-1.228 8.02 8.02 0 0 0 1.207-.915l.318-.306 77.323-77.52c3.186-3.195 3.18-8.369-.015-11.555a8.17 8.17 0 0 0-11.555.015l-60.739 60.894 13.124-112.394 185.495 101.814c1.868 1.02 3.944 1.239 5.846.78.209-.051.4-.105.589-.166a8.15 8.15 0 0 0 4.574-3.697l.146-.264a8.17 8.17 0 0 0 .517-1.202L511.521 43.608a8.17 8.17 0 0 0-1.989-8.609zm-482.3 199.713L432.364 77.371l-318.521 206.14-86.611-48.799zm135.488 82.224c-.764.613-1.429 1.374-1.949 2.267a8.73 8.73 0 0 0-.194.354c-.496.959-.784 1.972-.879 2.986L148.365 419.6l-25.107-122.718L398.363 118.84 162.72 316.936zm196.787 102.259l-177.284-97.307L485.928 66.574 359.507 419.195z"/></svg>